<?xml version="1.0" encoding="UTF-8" standalone="no"?>
<!-- Generator: Adobe Illustrator 16.0.0, SVG Export Plug-In . SVG Version: 6.00 Build 0)  -->

<svg
   xmlns:dc="http://purl.org/dc/elements/1.1/"
   xmlns:cc="http://creativecommons.org/ns#"
   xmlns:rdf="http://www.w3.org/1999/02/22-rdf-syntax-ns#"
   xmlns:svg="http://www.w3.org/2000/svg"
   xmlns="http://www.w3.org/2000/svg"
   xmlns:sodipodi="http://sodipodi.sourceforge.net/DTD/sodipodi-0.dtd"
   xmlns:inkscape="http://www.inkscape.org/namespaces/inkscape"
   version="1.1"
   id="Layer_1"
   x="0px"
   y="0px"
   width="200px"
   height="200px"
   viewBox="0 0 200 200"
   enable-background="new 0 0 200 200"
   xml:space="preserve"
   inkscape:version="0.91 r13725"
   sodipodi:docname="parrot.svg"><metadata
     id="metadata55"><rdf:RDF><cc:Work
         rdf:about=""><dc:format>image/svg+xml</dc:format><dc:type
           rdf:resource="http://purl.org/dc/dcmitype/StillImage" /></cc:Work></rdf:RDF></metadata><defs
     id="defs53"><pattern
       y="0"
       x="0"
       height="6"
       width="6"
       patternUnits="userSpaceOnUse"
       id="EMFhbasepattern" /><pattern
       y="0"
       x="0"
       height="6"
       width="6"
       patternUnits="userSpaceOnUse"
       id="EMFhbasepattern-3" /><pattern
       y="0"
       x="0"
       height="6"
       width="6"
       patternUnits="userSpaceOnUse"
       id="EMFhbasepattern-6" /></defs><sodipodi:namedview
     pagecolor="#ffffff"
     bordercolor="#666666"
     borderopacity="1"
     objecttolerance="10"
     gridtolerance="10"
     guidetolerance="10"
     inkscape:pageopacity="0"
     inkscape:pageshadow="2"
     inkscape:window-width="1366"
     inkscape:window-height="702"
     id="namedview51"
     showgrid="false"
     inkscape:zoom="1.18"
     inkscape:cx="26.184426"
     inkscape:cy="100"
     inkscape:window-x="0"
     inkscape:window-y="0"
     inkscape:window-maximized="1"
     inkscape:current-layer="Layer_1" /><text
     transform="scale(1.0474732,0.95467841)"
     font-size="42.0069"
     id="text49"
     x="6.5741372"
     y="172.48166"
     style="font-size:44.00110245px;font-family:RadisSans-Medium;fill:#2196f3;fill-opacity:1;"><tspan
       style="font-style:normal;font-variant:normal;font-weight:normal;font-stretch:normal;font-family:'Corpulent Caps Shadow BRK';-inkscape-font-specification:'Corpulent Caps Shadow BRK';fill:#2196f3;fill-opacity:1;"
       id="tspan57">PARROT</tspan></text>
<g
     id="g123"
     transform="matrix(4.0781972,0,0,4.0781972,-322.62103,-238.10131)"><path
       style="fill:#2196f3;fill-opacity:1;fill-rule:nonzero;stroke:none"
       d="m 113.27722,76.526161 c 0,-1.94028 -0.79375,-3.70417 -2.11667,-5.11528 0.0882,0 0.17639,0 0.26459,-0.0882 0.26458,-0.0882 0.52916,-0.17639 0.79375,-0.35278 0.17638,-0.17639 0.44097,-0.35278 0.52916,-0.52917 0.0882,-0.0882 0.17639,-0.17639 0.17639,-0.26458 0.0882,-0.0882 0.0882,-0.17639 0.0882,-0.26458 0.0882,-0.0882 0.0882,-0.26459 0.17639,-0.35278 0,-0.0882 0,-0.0882 0,-0.0882 -0.17639,-0.0882 -0.17639,-0.0882 -0.17639,-0.0882 0,0 0,0 -0.0882,0 -0.0882,0 -0.17639,0.0882 -0.35278,0.0882 -0.0882,0.0882 -0.26458,0.0882 -0.35277,0.0882 -0.17639,0.0882 -0.35278,0.0882 -0.52917,0.0882 -0.17639,0 -0.44097,0 -0.61736,0 -0.26459,0.0882 -0.44097,0.0882 -0.70556,0.0882 -0.26458,0 -0.44097,0.0882 -0.70555,0.0882 -0.17639,0 -0.35278,0 -0.52917,0 0,0 -0.0882,0 -0.0882,0 0.0882,0 0.0882,0 0.17639,0 0.35278,0 0.61736,0 0.97014,-0.0882 0.26458,-0.0882 0.61736,-0.26459 0.88194,-0.44097 0.26458,-0.0882 0.44097,-0.26459 0.61736,-0.52917 0.26459,-0.17639 0.35278,-0.35278 0.44097,-0.61736 0.0882,-0.0882 0.0882,-0.17639 0.17639,-0.26459 0,-0.0882 0,-0.17638 0,-0.26458 0.0882,-0.17639 0.0882,-0.26458 0.0882,-0.35278 0,-0.0882 0,-0.17639 0,-0.17639 -0.17639,0 -0.17639,0 -0.17639,0 0,0 -0.0882,0 -0.0882,0 -0.0882,0.0882 -0.17638,0.0882 -0.35277,0.17639 -0.0882,0.0882 -0.17639,0.0882 -0.35278,0.17639 -0.17639,0.0882 -0.35278,0.0882 -0.52917,0.17639 -0.17639,0.0882 -0.35278,0.0882 -0.52917,0.17639 -0.26458,0 -0.44097,0.0882 -0.70555,0.17639 -0.17639,0 -0.44098,0.17639 -0.70556,0.26458 -0.26458,0.0882 -0.52917,0.0882 -0.79375,0.17639 -0.26458,0.0882 -0.61736,0.0882 -0.88194,0.17639 0.17639,-0.0882 0.26458,-0.17639 0.44097,-0.26458 0.26458,-0.17639 0.52917,-0.35278 0.70555,-0.52917 0.17639,-0.26458 0.35278,-0.52917 0.52917,-0.70556 0.0882,-0.26458 0.17639,-0.52916 0.26458,-0.70555 0,-0.17639 0,-0.26458 0,-0.35278 0,-0.0882 0,-0.17639 0,-0.26458 0,-0.17639 0,-0.26459 -0.0882,-0.35278 0,-0.0882 0,-0.17639 0,-0.17639 -0.17638,0 -0.17638,0 -0.17638,0 0,0 0,0.0882 -0.0882,0.0882 -0.0882,0.0882 -0.0882,0.17638 -0.26459,0.26458 -0.0882,0.0882 -0.17639,0.17639 -0.26458,0.26458 -0.1764,0.0882 -0.35279,0.17639 -0.44098,0.26459 -0.17639,0.0882 -0.35278,0.17638 -0.52917,0.35277 -0.17639,0.0882 -0.44097,0.17639 -0.61736,0.26459 -0.17639,0.17639 -0.44097,0.35277 -0.61736,0.44097 -0.26458,0.17639 -0.44097,0.35278 -0.70556,0.44097 -0.52916,0.26458 -1.05833,0.44097 -1.5875,0.61736 -0.52916,0.26459 -0.97014,0.35278 -1.41111,0.52917 0,0 0,0 0,0 -1.4993,0.26458 -2.910412,0.88194 -4.056942,1.67569 1.940282,1.49931 5.556252,4.93889 5.556252,9.70139 0,0 -3.175,-0.44097 -4.321532,3.175 0.0882,0 0.0882,0 0.17639,0.0882 -1.5875,2.20486 -1.5875,2.20486 -1.5875,2.20486 6.526392,-1.23471 6.526392,-1.23471 6.526392,-1.23471 0.97014,0 1.85208,-0.17639 2.73403,-0.52917 0.26458,0 0.26458,0 0.26458,0 -0.0882,0 -0.0882,0 -0.0882,0 3.26319,-1.14653 5.64444,-4.05694 5.64444,-7.32014 z"
       id="path100"
       inkscape:connector-curvature="0" /><path
       style="fill:#ffeb3b;fill-opacity:1;fill-rule:nonzero;stroke:none"
       d="m 103.92861,80.142131 c 0,-4.7625 -3.61597,-8.20208 -5.556252,-9.70139 -1.94028,1.49931 -3.175,3.61598 -3.175,6.08542 0,2.91042 1.76389,5.37986 4.40972,6.79097 1.146532,-3.61597 4.321532,-3.175 4.321532,-3.175 z"
       id="path102"
       inkscape:connector-curvature="0" /><path
       style="fill:#ffffff;fill-opacity:1;fill-rule:nonzero;stroke:none"
       d="m 107.72097,72.645601 c 0,1.23473 -0.97014,2.20487 -2.29306,2.20487 -1.23472,0 -2.20486,-0.97014 -2.20486,-2.20487 0,-1.23472 0.97014,-2.29305 2.20486,-2.29305 1.32292,0 2.29306,1.05833 2.29306,2.29305 z"
       id="path104"
       inkscape:connector-curvature="0" /><path
       style="fill:#0c230e;fill-opacity:1;fill-rule:nonzero;stroke:none"
       d="m 107.01541,72.645601 c 0,0.79375 -0.70555,1.5875 -1.5875,1.5875 -0.79375,0 -1.4993,-0.79375 -1.4993,-1.5875 0,-0.88194 0.70555,-1.5875 1.4993,-1.5875 0.88195,0 1.5875,0.70556 1.5875,1.5875 z"
       id="path106"
       inkscape:connector-curvature="0" /><path
       style="fill:#0c230e;fill-opacity:1;fill-rule:nonzero;stroke:none"
       d="m 99.166108,72.998381 c 0.35278,0.35278 0.44097,0.70556 0.35278,0.79375 -0.17639,0.17639 -0.52917,0 -0.79375,-0.35278 -0.26459,-0.35277 -0.44098,-0.70555 -0.35278,-0.79375 0.17639,-0.17638 0.52916,0 0.79375,0.35278 z"
       id="path108"
       inkscape:connector-curvature="0" /><path
       style="fill:#ffffff;fill-opacity:1;fill-rule:nonzero;stroke:none"
       d="m 105.78069,71.940051 c 0,0.35278 -0.26458,0.61736 -0.70555,0.61736 -0.35278,0 -0.61737,-0.26458 -0.61737,-0.61736 0,-0.44097 0.26459,-0.70556 0.61737,-0.70556 0.44097,0 0.70555,0.26459 0.70555,0.70556 z"
       id="path110"
       inkscape:connector-curvature="0" /></g></svg>