<?xml version="1.0" encoding="UTF-8" standalone="no"?>
<!-- Generator: Adobe Illustrator 16.0.0, SVG Export Plug-In . SVG Version: 6.00 Build 0)  -->

<svg
   xmlns:dc="http://purl.org/dc/elements/1.1/"
   xmlns:cc="http://creativecommons.org/ns#"
   xmlns:rdf="http://www.w3.org/1999/02/22-rdf-syntax-ns#"
   xmlns:svg="http://www.w3.org/2000/svg"
   xmlns="http://www.w3.org/2000/svg"
   xmlns:sodipodi="http://sodipodi.sourceforge.net/DTD/sodipodi-0.dtd"
   xmlns:inkscape="http://www.inkscape.org/namespaces/inkscape"
   version="1.1"
   id="Layer_1"
   x="0px"
   y="0px"
   width="200px"
   height="200px"
   viewBox="0 0 200 200"
   enable-background="new 0 0 200 200"
   xml:space="preserve"
   inkscape:version="0.91 r13725"
   sodipodi:docname="favicon.svg"><metadata
     id="metadata11"><rdf:RDF><cc:Work
         rdf:about=""><dc:format>image/svg+xml</dc:format><dc:type
           rdf:resource="http://purl.org/dc/dcmitype/StillImage" /></cc:Work></rdf:RDF></metadata><defs
     id="defs9" /><sodipodi:namedview
     pagecolor="#ffffff"
     bordercolor="#666666"
     borderopacity="1"
     objecttolerance="10"
     gridtolerance="10"
     guidetolerance="10"
     inkscape:pageopacity="0"
     inkscape:pageshadow="2"
     inkscape:window-width="1366"
     inkscape:window-height="702"
     id="namedview7"
     showgrid="false"
     inkscape:zoom="1.18"
     inkscape:cx="100"
     inkscape:cy="100"
     inkscape:window-x="0"
     inkscape:window-y="0"
     inkscape:window-maximized="1"
     inkscape:current-layer="Layer_1" /><g
     id="g3"
     inkscape:export-xdpi="90"
     inkscape:export-ydpi="90"><path
       fill="#41B883"
       d="M100.877,24.203c-41.37,0-74.907,33.538-74.907,74.908c0,22.834,10.236,43.264,26.35,57.002   c4.428-1.623,8.884-3.15,13.384-4.533c0.043-16.686-0.504-37.379,4.187-53.361c-2.206,1.371-4.775,2.832-7.763,2.923   c-3.24,0.098-6.214-1.541-7.827-3.297c-0.842-0.88-1.395-1.814-1.81-2.635c-0.393-0.844-0.631-1.598-0.753-2.246   c-0.132-0.64-0.177-1.154-0.175-1.521c0-0.361,0-0.552,0-0.552c0-0.295,0.238-0.532,0.532-0.534c0.051,0,0.1,0.009,0.146,0.021   l0.035,0.011c0,0,0.759,0.221,1.861,0.571c1.118,0.327,2.528,0.816,3.942,0.994c1.426,0.233,2.618,0.098,3.955,0.107   c1.318,0.07,3.307,0.293,5.295-0.429c0.923-0.309,1.846-0.717,2.757-1.167c-2.704-0.009-5.851-0.072-8.576-1.681   c-2.791-1.649-4.43-4.625-4.854-6.97c-0.24-1.194-0.208-2.278-0.123-3.196c0.121-0.922,0.323-1.686,0.566-2.3   c0.228-0.613,0.468-1.071,0.664-1.38c0.194-0.305,0.296-0.467,0.296-0.467c0.156-0.25,0.485-0.323,0.733-0.165   c0.044,0.026,0.082,0.059,0.113,0.095l0.024,0.027c0,0,0.524,0.592,1.267,1.477c0.772,0.872,1.702,2.041,2.802,2.947   c1.082,0.958,2.16,1.48,3.286,2.204c1.078,0.764,2.638,2.016,4.705,2.468c1.751,0.428,3.663,0.59,5.543,0.677   c0.942-1.267,1.972-2.439,3.084-3.519c-1.424-0.129-2.883-0.442-4.213-1.228c-2.188-1.292-3.473-3.627-3.806-5.467   c-0.337-1.892-0.032-3.352,0.347-4.31c0.36-0.959,0.753-1.448,0.753-1.448l0.015-0.02c0.15-0.187,0.425-0.218,0.614-0.066   c0.019,0.014,0.039,0.034,0.055,0.05c-0.002,0.002,0.41,0.466,0.993,1.159c0.606,0.685,1.334,1.601,2.198,2.312   c0.848,0.753,1.692,1.163,2.576,1.731c0.846,0.598,2.07,1.58,3.692,1.936c1.192,0.275,2.465,0.405,3.736,0.481   c3.825-1.806,8.345-2.81,13.699-2.81c16.978,0,24.749,6.28,27.877,16.842c9.187,0.986,22.254,5.421,26.931,22.024   c0,0-14.281-3.072-25.164-2.697c-0.031,1.008-0.076,2.037-0.128,3.078l21.538,2.203c-3.396,8.73-15.716,11.766-22.706,12.797   c-0.886,9.443-1.904,19.727-2.329,30.424c1.284,2.99,2.44,6.014,3.378,9.113c0.223,0.396,0.48,0.77,0.688,1.178   c26.709-11.447,45.425-37.955,45.425-68.854C175.785,57.74,142.248,24.203,100.877,24.203z"
       id="path5" /></g></svg>