<?xml version="1.0" encoding="UTF-8" standalone="no"?>
<!-- Generator: Adobe Illustrator 16.0.0, SVG Export Plug-In . SVG Version: 6.00 Build 0)  -->

<svg
   xmlns:dc="http://purl.org/dc/elements/1.1/"
   xmlns:cc="http://creativecommons.org/ns#"
   xmlns:rdf="http://www.w3.org/1999/02/22-rdf-syntax-ns#"
   xmlns:svg="http://www.w3.org/2000/svg"
   xmlns="http://www.w3.org/2000/svg"
   xmlns:sodipodi="http://sodipodi.sourceforge.net/DTD/sodipodi-0.dtd"
   xmlns:inkscape="http://www.inkscape.org/namespaces/inkscape"
   version="1.1"
   id="Layer_1"
   x="0px"
   y="0px"
   width="200px"
   height="200px"
   viewBox="0 0 200 200"
   enable-background="new 0 0 200 200"
   xml:space="preserve"
   inkscape:version="0.91 r13725"
   sodipodi:docname="parrot.svg"><metadata
     id="metadata55"><rdf:RDF><cc:Work
         rdf:about=""><dc:format>image/svg+xml</dc:format><dc:type
           rdf:resource="http://purl.org/dc/dcmitype/StillImage" /></cc:Work></rdf:RDF></metadata><defs
     id="defs53" /><sodipodi:namedview
     pagecolor="#ffffff"
     bordercolor="#666666"
     borderopacity="1"
     objecttolerance="10"
     gridtolerance="10"
     guidetolerance="10"
     inkscape:pageopacity="0"
     inkscape:pageshadow="2"
     inkscape:window-width="1366"
     inkscape:window-height="702"
     id="namedview51"
     showgrid="false"
     inkscape:zoom="1.18"
     inkscape:cx="210.50646"
     inkscape:cy="100"
     inkscape:window-x="0"
     inkscape:window-y="0"
     inkscape:window-maximized="1"
     inkscape:current-layer="Layer_1" /><g
     id="g3"><g
       id="g5"><polygon
         fill="#F2C949"
         points="112.713,89.779 112.713,97.937 107.065,97.937   "
         id="polygon7" /><path
         fill="#F2C949"
         d="M110.763,40.615c0,0,10.686-1.719,13.44,8.059c0,0-11.368-2.446-13.38,0.303    C108.507,52.144,110.763,40.615,110.763,40.615z"
         id="path9" /><path
         fill="#F2C949"
         d="M112.68,54.51c0,0,8.375-0.338,10.146-4.887l-11.206-1.146L112.68,54.51z"
         id="path11" /><path
         fill="#41B883"
         d="M88.766,124.341c0,0,1.513-44.757,2.454-55.424c0.941-10.667-2.977-34.509,12.866-34.509    c19.451,0,6.018,22.431,10.406,45.176C117.302,94.153,93.471,113.048,88.766,124.341z"
         id="path13" /><g
         id="g15"><circle
           fill="#FFFFFF"
           cx="104.164"
           cy="43.898"
           r="4.235"
           id="circle17" /><circle
           fill="#34495E"
           cx="104.164"
           cy="43.898"
           r="2.541"
           id="circle19" /><circle
           opacity="0.7"
           fill="#FFFFFF"
           cx="105.129"
           cy="42.18"
           r="1.306"
           id="circle21" /><circle
           opacity="0.7"
           fill="#FFFFFF"
           cx="102.917"
           cy="45.78"
           r="1.117"
           id="circle23" /></g><polygon
         fill="#41B883"
         points="94.308,66.931 76.635,97.466 96.295,97.884   "
         id="polygon25" /><g
         id="g27"><path
           fill="#41B883"
           d="M102.991,35.161c0,0,0.003-0.001,0.009-0.003c0.014,0-0.02-0.003,0.035-0.002     c0.051-0.027,0.155,0.139,0.108,0.174c-0.017,0.04-0.011,0.021-0.018,0.034c-0.008,0.011-0.018,0.023-0.03,0.033     c-0.023,0.017-0.058,0.043-0.104,0.076c-0.072,0.047-0.179,0.115-0.314,0.203c-0.271,0.17-0.674,0.373-1.171,0.602     c-0.994,0.452-2.394,0.966-4.014,0.983c-0.793-0.002-1.73-0.008-2.537-0.485c-0.803-0.475-1.275-1.332-1.397-2.007     c-0.124-0.694-0.012-1.23,0.127-1.582c0.132-0.352,0.276-0.532,0.276-0.532l0.005-0.007c0.055-0.069,0.156-0.08,0.226-0.024     c0.007,0.005,0.014,0.012,0.02,0.019c0,0,0.15,0.171,0.365,0.425c0.222,0.251,0.49,0.588,0.807,0.849     c0.311,0.276,0.622,0.427,0.946,0.635c0.31,0.22,0.76,0.58,1.354,0.71c1.178,0.272,2.567,0.228,3.592,0.152     c0.516-0.042,0.943-0.114,1.247-0.155c0.148-0.026,0.265-0.047,0.344-0.061c0.035-0.005,0.073-0.021,0.063-0.008     c-0.008,0.007-0.015,0.015-0.019,0.023l-0.015,0.029c-0.048,0.033,0.055,0.198,0.104,0.169c0.048,0,0.007,0,0.016,0     c-0.006,0-0.008-0.001-0.008-0.001c-0.07-0.005-0.122-0.066-0.117-0.136c0.004-0.052,0.039-0.095,0.086-0.11L102.991,35.161z"
           id="path29" /></g><g
         id="g31"><path
           fill="#41B883"
           d="M100.1,38.141c0,0,0.003-0.001,0.01-0.003c0.017,0-0.023-0.004,0.043-0.002     c0.023,0.003,0.078,0.013,0.121,0.074c0.041,0.063,0.027,0.124,0.02,0.146c-0.021,0.054-0.013,0.027-0.022,0.044     c-0.01,0.014-0.023,0.029-0.039,0.042c-0.03,0.022-0.074,0.055-0.132,0.097c-0.092,0.06-0.229,0.147-0.401,0.258     c-0.347,0.213-0.855,0.485-1.49,0.776c-1.271,0.562-3.054,1.224-5.12,1.244c-1.011-0.003-2.206-0.01-3.234-0.618     c-1.024-0.605-1.626-1.697-1.782-2.559c-0.088-0.438-0.077-0.836-0.045-1.173c0.044-0.338,0.118-0.619,0.208-0.844     c0.084-0.225,0.172-0.393,0.244-0.507c0.071-0.112,0.108-0.171,0.108-0.171c0.058-0.091,0.178-0.118,0.269-0.061     c0.016,0.01,0.03,0.021,0.042,0.035l0.009,0.01c0,0,0.192,0.217,0.465,0.542c0.283,0.32,0.625,0.749,1.028,1.082     c0.397,0.352,0.793,0.543,1.206,0.809c0.396,0.28,0.968,0.74,1.727,0.906c0.745,0.182,1.571,0.235,2.365,0.264     c0.793,0.014,1.557-0.02,2.212-0.079c0.657-0.054,1.207-0.133,1.592-0.188c0.189-0.033,0.338-0.06,0.439-0.077     c0.045-0.007,0.094-0.027,0.081-0.011c-0.011,0.009-0.019,0.02-0.024,0.03l-0.019,0.039c-0.008,0.021-0.022,0.081,0.017,0.143     c0.042,0.061,0.096,0.069,0.118,0.072c0.057-0.001,0.008-0.001,0.018-0.001c-0.007,0-0.01,0-0.01,0     c-0.089-0.007-0.156-0.084-0.149-0.173c0.005-0.067,0.05-0.121,0.11-0.141L100.1,38.141z"
           id="path33" /></g><g
         id="g35"><path
           fill="#41B883"
           d="M97.64,37.521c0,0,0.002-0.002,0.007-0.008c0.015-0.01-0.023,0.009,0.036-0.026     c0.021-0.01,0.076-0.031,0.145,0c0.068,0.034,0.086,0.091,0.092,0.113c0.009,0.053,0.003,0.029,0.004,0.047     c-0.001,0.018-0.004,0.037-0.01,0.056c-0.014,0.035-0.034,0.086-0.06,0.152c-0.046,0.1-0.114,0.247-0.201,0.433     c-0.179,0.366-0.464,0.868-0.844,1.453c-0.774,1.155-1.926,2.667-3.662,3.789c-0.856,0.538-1.87,1.17-3.064,1.207     c-1.189,0.036-2.281-0.566-2.873-1.21c-0.309-0.323-0.512-0.666-0.665-0.967c-0.144-0.31-0.231-0.587-0.276-0.825     c-0.049-0.235-0.065-0.424-0.064-0.559c0-0.132,0-0.203,0-0.203c0-0.108,0.087-0.195,0.195-0.196     c0.019,0,0.037,0.003,0.054,0.008l0.013,0.003c0,0,0.278,0.081,0.683,0.209c0.411,0.12,0.928,0.299,1.447,0.365     c0.523,0.085,0.961,0.036,1.452,0.04c0.484,0.025,1.214,0.107,1.944-0.157c0.727-0.245,1.453-0.641,2.139-1.042     c0.678-0.412,1.305-0.849,1.828-1.25c0.527-0.396,0.949-0.757,1.245-1.01c0.142-0.129,0.254-0.23,0.33-0.3     c0.035-0.03,0.064-0.073,0.063-0.052c-0.004,0.013-0.005,0.026-0.004,0.038l0.004,0.041c0.004,0.022,0.021,0.079,0.087,0.113     c0.068,0.031,0.122,0.01,0.141,0c0.05-0.033,0.007-0.005,0.016-0.012c-0.006,0.003-0.009,0.005-0.009,0.005     c-0.079,0.042-0.176,0.012-0.218-0.066c-0.032-0.059-0.023-0.129,0.017-0.178L97.64,37.521z"
           id="path37" /></g></g><path
       fill="none"
       stroke="#34495E"
       stroke-width="4.346"
       stroke-miterlimit="10"
       d="M147.32,57.427v24.436   c0,9.601-7.784,17.384-17.384,17.384H70.902c-9.601,0-17.383-7.784-17.383-17.384V47.897"
       id="path39" /><path
       fill="#34495E"
       d="M53.2,57.893c-2.262-5.37-2.528-11.044,0.152-16.307c0.835-1.639,1.885-3.525,3.071-4.88   c0.897-1.024,2.13-1.547,3.149-2.429c1.604-1.387,2.601-3.095,3.537-4.943c1.856,6.542,2.907,12.501,0.66,19.124   c-0.861,2.539-1.932,4.737-4.313,6.01c-1.926,1.029-4.836,1.546-6.256,3.271"
       id="path41" /><path
       fill="#34495E"
       d="M145.675,69.012c-0.699-5.785,0.603-11.314,4.626-15.637c1.254-1.347,2.781-2.873,4.294-3.849   c1.145-0.739,2.474-0.903,3.695-1.471c1.923-0.893,3.352-2.262,4.759-3.781c-0.013,6.8-0.641,12.819-4.62,18.569   c-1.525,2.204-3.158,4.024-5.798,4.593c-2.134,0.46-5.075,0.158-6.913,1.426"
       id="path43" /><path
       fill="#34495E"
       d="M148.913,63.064c-4.041-1.918-7.096-5.032-8.251-9.416c-0.361-1.365-0.725-2.983-0.738-4.365   c-0.011-1.046,0.429-1.976,0.562-3.001c0.208-1.614-0.094-3.103-0.503-4.639c4.409,2.797,8.058,5.672,10.157,10.613   c0.806,1.894,1.316,3.7,0.604,5.646c-0.576,1.574-1.979,3.359-1.909,5.072"
       id="path45" /><path
       fill="#34495E"
       d="M54.659,57.255c-4.195-1.505-7.529-4.291-9.105-8.523c-0.491-1.319-1.01-2.887-1.16-4.255   c-0.113-1.036,0.23-2,0.261-3.031c0.049-1.621-0.398-3.066-0.954-4.549c4.645,2.34,8.545,4.831,11.112,9.523   c0.984,1.799,1.668,3.54,1.153,5.539c-0.416,1.617-1.631,3.524-1.395,5.216"
       id="path47" /></g><text
     transform="scale(1.0474732,0.95467841)"
     font-size="42.0069"
     id="text49"
     x="6.5741372"
     y="172.48166"
     style="font-size:44.00110245px;font-family:RadisSans-Medium;fill:#34495e"><tspan
       style="font-style:normal;font-variant:normal;font-weight:normal;font-stretch:normal;font-family:'Corpulent Caps Shadow BRK';-inkscape-font-specification:'Corpulent Caps Shadow BRK'"
       id="tspan57">PARROT</tspan></text>
</svg>