<?xml version="1.0" encoding="UTF-8" standalone="no"?>
<!-- Generator: Adobe Illustrator 16.0.0, SVG Export Plug-In . SVG Version: 6.00 Build 0)  -->

<svg
   xmlns:dc="http://purl.org/dc/elements/1.1/"
   xmlns:cc="http://creativecommons.org/ns#"
   xmlns:rdf="http://www.w3.org/1999/02/22-rdf-syntax-ns#"
   xmlns:svg="http://www.w3.org/2000/svg"
   xmlns="http://www.w3.org/2000/svg"
   xmlns:sodipodi="http://sodipodi.sourceforge.net/DTD/sodipodi-0.dtd"
   xmlns:inkscape="http://www.inkscape.org/namespaces/inkscape"
   version="1.1"
   id="Layer_1"
   sodipodi:docname="parrotIco.svg"
   inkscape:version="0.91 r13725"
   x="0px"
   y="0px"
   width="200px"
   height="200px"
   viewBox="0 0 200 200"
   enable-background="new 0 0 200 200"
   xml:space="preserve"
   inkscape:export-filename="/home/gunter/Alura/PostProjects/Vue/parrot/parrot/src/assets/parrotIco.ico"
   inkscape:export-xdpi="89.099998"
   inkscape:export-ydpi="89.099998"><metadata
     id="metadata16"><rdf:RDF><cc:Work
         rdf:about=""><dc:format>image/svg+xml</dc:format><dc:type
           rdf:resource="http://purl.org/dc/dcmitype/StillImage" /></cc:Work></rdf:RDF></metadata><defs
     id="defs14" /><sodipodi:namedview
     id="namedview7"
     inkscape:window-maximized="1"
     inkscape:current-layer="Layer_1"
     inkscape:window-y="0"
     inkscape:window-x="0"
     inkscape:window-height="702"
     inkscape:window-width="1366"
     inkscape:pageshadow="2"
     inkscape:pageopacity="0"
     inkscape:cy="173.0166"
     inkscape:cx="85.037761"
     inkscape:zoom="0.295"
     showgrid="false"
     gridtolerance="10"
     objecttolerance="10"
     borderopacity="1"
     bordercolor="#666666"
     pagecolor="#ffffff"
     guidetolerance="10"
     inkscape:snap-global="true" /><g
     id="g4"
     style="fill:#ffffff;fill-opacity:1"><path
       fill="#2196F3"
       d="M89.519,132.26c-8.187,1.318-20.256,6.363-26.267,24.397C69.263,138.624,81.332,133.578,89.519,132.26z"
       id="path8"
       style="fill:#ffffff;fill-opacity:1" /><path
       fill="#FFFFFF"
       d="M151.553,65.597c0,0,0,0-3.449-3.449c0,0,0,0,4.828-1.38c0,0,0,0,0.69,0c0,0,0.69,0,1.38,0   c2.069-0.69,3.449-2.069,5.519-2.759c1.38-1.38,2.76-2.759,3.449-3.449c0.69-0.69,0.69-1.38,1.38-2.07c0-0.689,0-0.689,0.689-1.379   h-0.689c-0.689,0.69-2.069,0.69-3.449,0.69c-1.38,0.689-2.76,0.689-4.139,0.689c-1.38,0-2.07,0-3.449,0c0,0,0,0-1.381,0   c-1.379,0.69-3.449,0.69-4.828,0.69c-1.38,0-2.76,0-4.139,0c-0.69,0.69-1.381,0.69-2.07,0.69c-1.379,0-2.76,0-4.139,0   c0,0,0,0-0.689,0.69c0,0,0,0-0.69-0.69c0,0,0,0-0.69,0c0,0,0,0-8.968-5.519c0,0,0,0,10.348,0c0,0,0,0,0.69,0h0.689   c2.76,0,4.829,0,6.898-0.69c2.07-0.69,4.139-1.38,6.209-2.759c1.379-1.38,3.449-2.07,4.139-3.45c2.07-2.069,2.76-3.449,3.449-4.829   c0-0.69,0.69-0.69,0.69-1.38s0-1.38,0-1.38c-0.69,0-2.069,0.69-3.449,1.38s-2.76,0.69-4.14,1.38c-0.689,0-2.069,0.69-3.449,0.69   c0,0,0,0-0.689,0.69c-2.07,0-3.449,0.689-5.52,0.689c-0.689,0.69-2.068,1.38-2.759,1.38c-1.38,0.69-2.069,0.69-2.759,0.69   c-2.07,0.69-4.14,1.379-6.209,2.069c-2.07,0.69-4.83,0.69-7.589,1.38c0,0,0,0-21.386,2.069c0,0,0,0,20.006-7.588   c1.38-0.689,2.07-1.379,3.449-1.379c2.07-1.38,3.449-2.76,4.829-4.139c1.38-2.07,2.76-3.449,3.449-4.829   c1.38-2.069,2.069-4.139,2.069-4.829s0-1.379,0-2.069s0-1.38,0-1.38c-0.689,0.689-1.379,1.379-2.759,2.069   s-2.759,2.069-3.449,2.759c-1.38,0-2.069,0.69-3.449,1.38c0,0,0,0-0.69,0.69c-1.379,0.69-3.449,1.38-4.828,2.759   c-0.69,0.69-2.07,1.38-2.76,2.07c-0.689,0-1.38,0.689-2.07,1.379c-1.379,0.69-3.449,2.07-6.208,3.449   c-3.449,1.38-7.589,3.449-11.728,4.829c0,0,0,0-0.69,0c-3.449,1.38-7.588,2.759-11.038,4.139c0,0,0,0-0.69,0   c-9.658,2.069-19.316,5.519-26.904,11.038c16.557,13.107,41.391,39.322,41.391,75.194c0,0,0,0,0,3.449c0,0,0,0-2.759-0.689   c0,0-1.38,0-2.07,0c-6.208,0-21.385,2.069-28.284,20.695c0,0,0,0,2.069,0.689c0,0,0,0-2.069,2.76c0,0,0,0-8.278,11.728   c0,0,0,0,44.151-8.278c0,0,0,0,0.689,0c6.899,0,13.798-1.379,20.696-3.449c0,0,0,0,0.689-0.689   c26.215-8.969,42.771-30.354,42.771-54.498C167.42,89.741,161.9,75.944,151.553,65.597z M108.781,93.19   c-11.037,0-20.005-8.968-20.005-20.005c0-11.728,8.968-20.696,20.005-20.696c11.729,0,20.696,8.968,20.696,20.696   C129.478,84.223,120.51,93.19,108.781,93.19z"
       id="path10"
       style="fill:#ffffff;fill-opacity:1" /><path
       fill="#FFFFFF"
       d="M53.594,60.078c-13.797,11.038-22.076,26.904-22.076,43.461c0,19.315,11.728,37.941,30.354,48.979   c8.278-21.385,26.214-23.455,32.423-23.455C92.915,95.95,69.46,71.806,53.594,60.078z M63.941,84.223   c-0.69,0.69-1.38,1.38-2.07,1.38c-3.449,0-6.898-3.449-7.588-4.139c-3.449-4.139-4.829-8.278-2.069-10.348   c0.69-0.69,1.38-1.38,2.759-1.38c2.76,0,6.208,3.449,6.898,4.829c1.38,1.379,2.76,2.759,3.45,4.139   C66.011,82.153,65.321,83.533,63.941,84.223z"
       id="path12"
       style="fill:#ffffff;fill-opacity:1" /></g></svg>